<svg id="visual" viewBox="0 0 540 960" width="540" height="960" xmlns="http://www.w3.org/2000/svg" xmlns:xlink="http://www.w3.org/1999/xlink" version="1.1"><rect x="0" y="0" width="540" height="960" fill="#001220"></rect><defs><linearGradient id="grad1_0" x1="0%" y1="100%" x2="100%" y2="0%"><stop offset="30%" stop-color="#fbae3c" stop-opacity="1"></stop><stop offset="70%" stop-color="#fbae3c" stop-opacity="1"></stop></linearGradient></defs><defs><linearGradient id="grad1_1" x1="0%" y1="100%" x2="100%" y2="0%"><stop offset="30%" stop-color="#fbae3c" stop-opacity="1"></stop><stop offset="70%" stop-color="#f48350" stop-opacity="1"></stop></linearGradient></defs><defs><linearGradient id="grad1_2" x1="0%" y1="100%" x2="100%" y2="0%"><stop offset="30%" stop-color="#d96162" stop-opacity="1"></stop><stop offset="70%" stop-color="#f48350" stop-opacity="1"></stop></linearGradient></defs><defs><linearGradient id="grad1_3" x1="0%" y1="100%" x2="100%" y2="0%"><stop offset="30%" stop-color="#d96162" stop-opacity="1"></stop><stop offset="70%" stop-color="#af4b6d" stop-opacity="1"></stop></linearGradient></defs><defs><linearGradient id="grad1_4" x1="0%" y1="100%" x2="100%" y2="0%"><stop offset="30%" stop-color="#7c3e6b" stop-opacity="1"></stop><stop offset="70%" stop-color="#af4b6d" stop-opacity="1"></stop></linearGradient></defs><defs><linearGradient id="grad1_5" x1="0%" y1="100%" x2="100%" y2="0%"><stop offset="30%" stop-color="#7c3e6b" stop-opacity="1"></stop><stop offset="70%" stop-color="#49335c" stop-opacity="1"></stop></linearGradient></defs><defs><linearGradient id="grad1_6" x1="0%" y1="100%" x2="100%" y2="0%"><stop offset="30%" stop-color="#1d2540" stop-opacity="1"></stop><stop offset="70%" stop-color="#49335c" stop-opacity="1"></stop></linearGradient></defs><defs><linearGradient id="grad1_7" x1="0%" y1="100%" x2="100%" y2="0%"><stop offset="30%" stop-color="#1d2540" stop-opacity="1"></stop><stop offset="70%" stop-color="#001220" stop-opacity="1"></stop></linearGradient></defs><defs><linearGradient id="grad2_0" x1="0%" y1="100%" x2="100%" y2="0%"><stop offset="30%" stop-color="#fbae3c" stop-opacity="1"></stop><stop offset="70%" stop-color="#fbae3c" stop-opacity="1"></stop></linearGradient></defs><defs><linearGradient id="grad2_1" x1="0%" y1="100%" x2="100%" y2="0%"><stop offset="30%" stop-color="#f48350" stop-opacity="1"></stop><stop offset="70%" stop-color="#fbae3c" stop-opacity="1"></stop></linearGradient></defs><defs><linearGradient id="grad2_2" x1="0%" y1="100%" x2="100%" y2="0%"><stop offset="30%" stop-color="#f48350" stop-opacity="1"></stop><stop offset="70%" stop-color="#d96162" stop-opacity="1"></stop></linearGradient></defs><defs><linearGradient id="grad2_3" x1="0%" y1="100%" x2="100%" y2="0%"><stop offset="30%" stop-color="#af4b6d" stop-opacity="1"></stop><stop offset="70%" stop-color="#d96162" stop-opacity="1"></stop></linearGradient></defs><defs><linearGradient id="grad2_4" x1="0%" y1="100%" x2="100%" y2="0%"><stop offset="30%" stop-color="#af4b6d" stop-opacity="1"></stop><stop offset="70%" stop-color="#7c3e6b" stop-opacity="1"></stop></linearGradient></defs><defs><linearGradient id="grad2_5" x1="0%" y1="100%" x2="100%" y2="0%"><stop offset="30%" stop-color="#49335c" stop-opacity="1"></stop><stop offset="70%" stop-color="#7c3e6b" stop-opacity="1"></stop></linearGradient></defs><defs><linearGradient id="grad2_6" x1="0%" y1="100%" x2="100%" y2="0%"><stop offset="30%" stop-color="#49335c" stop-opacity="1"></stop><stop offset="70%" stop-color="#1d2540" stop-opacity="1"></stop></linearGradient></defs><defs><linearGradient id="grad2_7" x1="0%" y1="100%" x2="100%" y2="0%"><stop offset="30%" stop-color="#001220" stop-opacity="1"></stop><stop offset="70%" stop-color="#1d2540" stop-opacity="1"></stop></linearGradient></defs><g transform="translate(540, 960)"><path d="M-540 0C-512.7 -26.1 -485.5 -52.3 -461.3 -73.1C-437 -93.8 -415.9 -109.2 -417.5 -135.7C-419.1 -162.1 -443.6 -199.5 -441 -224.7C-438.5 -250 -409 -263.1 -394 -286.3C-378.9 -309.4 -378.3 -342.6 -367 -367C-355.7 -391.4 -333.7 -407 -313.9 -432C-294.1 -457.1 -276.6 -491.6 -242.4 -475.8C-208.3 -460 -157.5 -393.8 -131 -403.2C-104.5 -412.7 -102.3 -497.9 -84.5 -533.4C-66.7 -568.8 -33.3 -554.4 0 -540L0 0Z" fill="#0c1c30"></path><path d="M-472.5 0C-448.6 -22.9 -424.8 -45.7 -403.6 -63.9C-382.4 -82.1 -363.9 -95.6 -365.3 -118.7C-366.8 -141.8 -388.1 -174.5 -385.9 -196.6C-383.7 -218.7 -357.9 -230.2 -344.7 -250.5C-331.6 -270.7 -331 -299.8 -321.1 -321.1C-311.2 -342.5 -291.9 -356.1 -274.6 -378C-257.3 -399.9 -242 -430.2 -212.1 -416.3C-182.3 -402.5 -137.8 -344.5 -114.6 -352.8C-91.5 -361.1 -89.5 -435.7 -73.9 -466.7C-58.3 -497.7 -29.2 -485.1 0 -472.5L0 0Z" fill="#312c4f"></path><path d="M-405 0C-384.5 -19.6 -364.1 -39.2 -345.9 -54.8C-327.8 -70.4 -311.9 -81.9 -313.1 -101.7C-314.4 -121.6 -332.7 -149.6 -330.8 -168.5C-328.9 -187.5 -306.8 -197.3 -295.5 -214.7C-284.2 -232.1 -283.7 -257 -275.2 -275.2C-266.7 -293.5 -250.2 -305.2 -235.4 -324C-220.6 -342.8 -207.4 -368.7 -181.8 -356.8C-156.2 -345 -118.1 -295.3 -98.3 -302.4C-78.4 -309.6 -76.7 -373.5 -63.4 -400C-50 -426.6 -25 -415.8 0 -405L0 0Z" fill="#623965"></path><path d="M-337.5 0C-320.5 -16.3 -303.4 -32.7 -288.3 -45.7C-273.1 -58.6 -259.9 -68.3 -260.9 -84.8C-262 -101.3 -277.2 -124.7 -275.7 -140.5C-274.1 -156.2 -255.7 -164.4 -246.2 -178.9C-236.8 -193.4 -236.4 -214.1 -229.4 -229.4C-222.3 -244.6 -208.5 -254.3 -196.2 -270C-183.8 -285.7 -172.9 -307.3 -151.5 -297.4C-130.2 -287.5 -98.5 -246.1 -81.9 -252C-65.3 -258 -63.9 -311.2 -52.8 -333.3C-41.7 -355.5 -20.8 -346.5 0 -337.5L0 0Z" fill="#96446e"></path><path d="M-270 0C-256.4 -13.1 -242.7 -26.1 -230.6 -36.5C-218.5 -46.9 -207.9 -54.6 -208.8 -67.8C-209.6 -81 -221.8 -99.7 -220.5 -112.4C-219.3 -125 -204.5 -131.5 -197 -143.1C-189.5 -154.7 -189.2 -171.3 -183.5 -183.5C-177.8 -195.7 -166.8 -203.5 -156.9 -216C-147.1 -228.5 -138.3 -245.8 -121.2 -237.9C-104.1 -230 -78.8 -196.9 -65.5 -201.6C-52.3 -206.4 -51.1 -249 -42.2 -266.7C-33.3 -284.4 -16.7 -277.2 0 -270L0 0Z" fill="#c55469"></path><path d="M-202.5 0C-192.3 -9.8 -182 -19.6 -173 -27.4C-163.9 -35.2 -156 -41 -156.6 -50.9C-157.2 -60.8 -166.3 -74.8 -165.4 -84.3C-164.4 -93.7 -153.4 -98.7 -147.7 -107.3C-142.1 -116 -141.9 -128.5 -137.6 -137.6C-133.4 -146.8 -125.1 -152.6 -117.7 -162C-110.3 -171.4 -103.7 -184.4 -90.9 -178.4C-78.1 -172.5 -59.1 -147.7 -49.1 -151.2C-39.2 -154.8 -38.4 -186.7 -31.7 -200C-25 -213.3 -12.5 -207.9 0 -202.5L0 0Z" fill="#e9705a"></path><path d="M-135 0C-128.2 -6.5 -121.4 -13.1 -115.3 -18.3C-109.3 -23.5 -104 -27.3 -104.4 -33.9C-104.8 -40.5 -110.9 -49.9 -110.3 -56.2C-109.6 -62.5 -102.3 -65.8 -98.5 -71.6C-94.7 -77.4 -94.6 -85.7 -91.7 -91.7C-88.9 -97.8 -83.4 -101.7 -78.5 -108C-73.5 -114.3 -69.1 -122.9 -60.6 -118.9C-52.1 -115 -39.4 -98.4 -32.8 -100.8C-26.1 -103.2 -25.6 -124.5 -21.1 -133.3C-16.7 -142.2 -8.3 -138.6 0 -135L0 0Z" fill="#fa9845"></path><path d="M-67.5 0C-64.1 -3.3 -60.7 -6.5 -57.7 -9.1C-54.6 -11.7 -52 -13.7 -52.2 -17C-52.4 -20.3 -55.4 -24.9 -55.1 -28.1C-54.8 -31.2 -51.1 -32.9 -49.2 -35.8C-47.4 -38.7 -47.3 -42.8 -45.9 -45.9C-44.5 -48.9 -41.7 -50.9 -39.2 -54C-36.8 -57.1 -34.6 -61.5 -30.3 -59.5C-26 -57.5 -19.7 -49.2 -16.4 -50.4C-13.1 -51.6 -12.8 -62.2 -10.6 -66.7C-8.3 -71.1 -4.2 -69.3 0 -67.5L0 0Z" fill="#fbae3c"></path></g><g transform="translate(0, 0)"><path d="M540 0C552 33.7 563.9 67.4 523.5 82.9C483 98.4 390.2 95.8 389 126.4C387.7 156.9 478 220.7 479.4 244.2C480.7 267.8 393.2 251.3 356 258.6C318.7 266 331.7 297.2 338 338C344.3 378.8 343.8 429 317.4 436.9C291 444.7 238.7 410.2 207.5 407.2C176.3 404.2 166.2 432.8 149.6 460.3C132.9 487.8 109.6 514.3 83.5 527.4C57.5 540.5 28.8 540.3 0 540L0 0Z" fill="#0c1c30"></path><path d="M472.5 0C483 29.5 493.4 59 458 72.5C422.7 86.1 341.5 83.9 340.4 110.6C339.3 137.3 418.2 193.1 419.4 213.7C420.6 234.4 344.1 219.9 311.5 226.3C278.9 232.7 290.3 260.1 295.7 295.7C301.2 331.4 300.8 375.4 277.7 382.3C254.6 389.1 208.8 358.9 181.5 356.3C154.2 353.7 145.5 378.7 130.9 402.8C116.3 426.9 95.9 450 73.1 461.5C50.3 473 25.2 472.7 0 472.5L0 0Z" fill="#312c4f"></path><path d="M405 0C414 25.3 422.9 50.5 392.6 62.2C362.3 73.8 292.7 71.9 291.7 94.8C290.8 117.7 358.5 165.5 359.5 183.2C360.6 200.9 294.9 188.5 267 194C239 199.5 248.8 222.9 253.5 253.5C258.2 284.1 257.9 321.8 238.1 327.7C218.3 333.5 179 307.6 155.6 305.4C132.2 303.2 124.7 324.6 112.2 345.2C99.7 365.9 82.2 385.7 62.7 395.6C43.1 405.4 21.6 405.2 0 405L0 0Z" fill="#623965"></path><path d="M337.5 0C345 21.1 352.4 42.1 327.2 51.8C301.9 61.5 243.9 59.9 243.1 79C242.3 98.1 298.7 137.9 299.6 152.7C300.5 167.4 245.8 157 222.5 161.6C199.2 166.2 207.3 185.8 211.2 211.2C215.2 236.7 214.9 268.1 198.4 273C181.9 278 149.2 256.4 129.7 254.5C110.2 252.6 103.9 270.5 93.5 287.7C83.1 304.9 68.5 321.4 52.2 329.6C35.9 337.8 18 337.7 0 337.5L0 0Z" fill="#96446e"></path><path d="M270 0C276 16.8 282 33.7 261.7 41.5C241.5 49.2 195.1 47.9 194.5 63.2C193.9 78.5 239 110.3 239.7 122.1C240.4 133.9 196.6 125.6 178 129.3C159.4 133 165.9 148.6 169 169C172.1 189.4 171.9 214.5 158.7 218.4C145.5 222.4 119.3 205.1 103.7 203.6C88.1 202.1 83.1 216.4 74.8 230.2C66.4 243.9 54.8 257.2 41.8 263.7C28.8 270.3 14.4 270.1 0 270L0 0Z" fill="#c55469"></path><path d="M202.5 0C207 12.6 211.5 25.3 196.3 31.1C181.1 36.9 146.3 35.9 145.9 47.4C145.4 58.9 179.2 82.7 179.8 91.6C180.3 100.4 147.5 94.2 133.5 97C119.5 99.7 124.4 111.5 126.7 126.7C129.1 142 128.9 160.9 119 163.8C109.1 166.8 89.5 153.8 77.8 152.7C66.1 151.6 62.3 162.3 56.1 172.6C49.8 182.9 41.1 192.9 31.3 197.8C21.6 202.7 10.8 202.6 0 202.5L0 0Z" fill="#e9705a"></path><path d="M135 0C138 8.4 141 16.8 130.9 20.7C120.8 24.6 97.6 24 97.2 31.6C96.9 39.2 119.5 55.2 119.8 61.1C120.2 67 98.3 62.8 89 64.7C79.7 66.5 82.9 74.3 84.5 84.5C86.1 94.7 86 107.3 79.4 109.2C72.8 111.2 59.7 102.5 51.9 101.8C44.1 101.1 41.6 108.2 37.4 115.1C33.2 122 27.4 128.6 20.9 131.9C14.4 135.1 7.2 135.1 0 135L0 0Z" fill="#fa9845"></path><path d="M67.5 0C69 4.2 70.5 8.4 65.4 10.4C60.4 12.3 48.8 12 48.6 15.8C48.5 19.6 59.7 27.6 59.9 30.5C60.1 33.5 49.2 31.4 44.5 32.3C39.8 33.2 41.5 37.2 42.2 42.2C43 47.3 43 53.6 39.7 54.6C36.4 55.6 29.8 51.3 25.9 50.9C22 50.5 20.8 54.1 18.7 57.5C16.6 61 13.7 64.3 10.4 65.9C7.2 67.6 3.6 67.5 0 67.5L0 0Z" fill="#fbae3c"></path></g></svg>