<svg id="visual" viewBox="0 0 450 900" width="450" height="900" xmlns="http://www.w3.org/2000/svg" xmlns:xlink="http://www.w3.org/1999/xlink" version="1.1"><rect x="0" y="0" width="450" height="900" fill="#001220"></rect><defs><linearGradient id="grad1_0" x1="0%" y1="100%" x2="100%" y2="0%"><stop offset="30%" stop-color="#fbae3c" stop-opacity="1"></stop><stop offset="70%" stop-color="#fbae3c" stop-opacity="1"></stop></linearGradient></defs><defs><linearGradient id="grad1_1" x1="0%" y1="100%" x2="100%" y2="0%"><stop offset="30%" stop-color="#fbae3c" stop-opacity="1"></stop><stop offset="70%" stop-color="#96446e" stop-opacity="1"></stop></linearGradient></defs><defs><linearGradient id="grad1_2" x1="0%" y1="100%" x2="100%" y2="0%"><stop offset="30%" stop-color="#001220" stop-opacity="1"></stop><stop offset="70%" stop-color="#96446e" stop-opacity="1"></stop></linearGradient></defs><defs><linearGradient id="grad2_0" x1="0%" y1="100%" x2="100%" y2="0%"><stop offset="30%" stop-color="#fbae3c" stop-opacity="1"></stop><stop offset="70%" stop-color="#fbae3c" stop-opacity="1"></stop></linearGradient></defs><defs><linearGradient id="grad2_1" x1="0%" y1="100%" x2="100%" y2="0%"><stop offset="30%" stop-color="#96446e" stop-opacity="1"></stop><stop offset="70%" stop-color="#fbae3c" stop-opacity="1"></stop></linearGradient></defs><defs><linearGradient id="grad2_2" x1="0%" y1="100%" x2="100%" y2="0%"><stop offset="30%" stop-color="#96446e" stop-opacity="1"></stop><stop offset="70%" stop-color="#001220" stop-opacity="1"></stop></linearGradient></defs><g transform="translate(450, 900)"><path d="M-337.5 0C-313.3 -17 -289 -34.1 -286.4 -57C-283.8 -79.9 -302.8 -108.6 -290.1 -120.2C-277.4 -131.7 -233 -126.1 -227 -151.7C-221 -177.2 -253.3 -233.9 -238.6 -238.6C-224 -243.4 -162.3 -196.4 -141.1 -211.2C-119.9 -226 -139.1 -302.8 -127.8 -308.6C-116.5 -314.4 -74.6 -249.3 -48.2 -242.3C-21.8 -235.3 -10.9 -286.4 0 -337.5L0 0Z" fill="#3d3056"></path><path d="M-225 0C-208.8 -11.4 -192.7 -22.7 -190.9 -38C-189.2 -53.2 -201.9 -72.4 -193.4 -80.1C-184.9 -87.8 -155.3 -84.1 -151.3 -101.1C-147.3 -118.1 -168.9 -155.9 -159.1 -159.1C-149.3 -162.3 -108.2 -130.9 -94.1 -140.8C-79.9 -150.7 -92.8 -201.8 -85.2 -205.7C-77.7 -209.6 -49.7 -166.2 -32.1 -161.5C-14.5 -156.8 -7.3 -190.9 0 -225L0 0Z" fill="#e1685e"></path><path d="M-112.5 0C-104.4 -5.7 -96.3 -11.4 -95.5 -19C-94.6 -26.6 -100.9 -36.2 -96.7 -40.1C-92.5 -43.9 -77.7 -42 -75.7 -50.6C-73.7 -59.1 -84.4 -78 -79.5 -79.5C-74.7 -81.1 -54.1 -65.5 -47 -70.4C-40 -75.3 -46.4 -100.9 -42.6 -102.9C-38.8 -104.8 -24.9 -83.1 -16.1 -80.8C-7.3 -78.4 -3.6 -95.5 0 -112.5L0 0Z" fill="#fbae3c"></path></g><g transform="translate(0, 0)"><path d="M337.5 0C338.6 22.8 339.7 45.6 331 65.8C322.3 86.1 303.9 103.8 287.3 119C270.8 134.3 256.1 147.1 246.9 165C237.8 182.9 234.3 205.8 222.7 222.7C211.2 239.7 191.6 250.5 171.7 256.9C151.7 263.3 131.5 265.2 113.7 274.4C95.9 283.6 80.6 300.1 62 311.9C43.5 323.6 21.8 330.6 0 337.5L0 0Z" fill="#3d3056"></path><path d="M225 0C225.7 15.2 226.5 30.4 220.7 43.9C214.9 57.4 202.6 69.2 191.6 79.3C180.5 89.5 170.7 98.1 164.6 110C158.6 121.9 156.2 137.2 148.5 148.5C140.8 159.8 127.7 167 114.4 171.3C101.2 175.5 87.6 176.8 75.8 182.9C63.9 189.1 53.7 200.1 41.4 207.9C29 215.8 14.5 220.4 0 225L0 0Z" fill="#e1685e"></path><path d="M112.5 0C112.9 7.6 113.2 15.2 110.3 21.9C107.4 28.7 101.3 34.6 95.8 39.7C90.3 44.8 85.4 49 82.3 55C79.3 61 78.1 68.6 74.2 74.2C70.4 79.9 63.9 83.5 57.2 85.6C50.6 87.8 43.8 88.4 37.9 91.5C32 94.5 26.9 100 20.7 104C14.5 107.9 7.3 110.2 0 112.5L0 0Z" fill="#fbae3c"></path></g></svg>