<svg id="visual" viewBox="0 0 675 900" width="675" height="900" xmlns="http://www.w3.org/2000/svg" xmlns:xlink="http://www.w3.org/1999/xlink" version="1.1"><rect x="0" y="0" width="675" height="900" fill="#001220"></rect><defs><linearGradient id="grad1_0" x1="0%" y1="100%" x2="100%" y2="0%"><stop offset="30%" stop-color="#fbae3c" stop-opacity="1"></stop><stop offset="70%" stop-color="#fbae3c" stop-opacity="1"></stop></linearGradient></defs><defs><linearGradient id="grad1_1" x1="0%" y1="100%" x2="100%" y2="0%"><stop offset="30%" stop-color="#fbae3c" stop-opacity="1"></stop><stop offset="70%" stop-color="#f48350" stop-opacity="1"></stop></linearGradient></defs><defs><linearGradient id="grad1_2" x1="0%" y1="100%" x2="100%" y2="0%"><stop offset="30%" stop-color="#d96162" stop-opacity="1"></stop><stop offset="70%" stop-color="#f48350" stop-opacity="1"></stop></linearGradient></defs><defs><linearGradient id="grad1_3" x1="0%" y1="100%" x2="100%" y2="0%"><stop offset="30%" stop-color="#d96162" stop-opacity="1"></stop><stop offset="70%" stop-color="#af4b6d" stop-opacity="1"></stop></linearGradient></defs><defs><linearGradient id="grad1_4" x1="0%" y1="100%" x2="100%" y2="0%"><stop offset="30%" stop-color="#7c3e6b" stop-opacity="1"></stop><stop offset="70%" stop-color="#af4b6d" stop-opacity="1"></stop></linearGradient></defs><defs><linearGradient id="grad1_5" x1="0%" y1="100%" x2="100%" y2="0%"><stop offset="30%" stop-color="#7c3e6b" stop-opacity="1"></stop><stop offset="70%" stop-color="#49335c" stop-opacity="1"></stop></linearGradient></defs><defs><linearGradient id="grad1_6" x1="0%" y1="100%" x2="100%" y2="0%"><stop offset="30%" stop-color="#1d2540" stop-opacity="1"></stop><stop offset="70%" stop-color="#49335c" stop-opacity="1"></stop></linearGradient></defs><defs><linearGradient id="grad1_7" x1="0%" y1="100%" x2="100%" y2="0%"><stop offset="30%" stop-color="#1d2540" stop-opacity="1"></stop><stop offset="70%" stop-color="#001220" stop-opacity="1"></stop></linearGradient></defs><defs><linearGradient id="grad2_0" x1="0%" y1="100%" x2="100%" y2="0%"><stop offset="30%" stop-color="#fbae3c" stop-opacity="1"></stop><stop offset="70%" stop-color="#fbae3c" stop-opacity="1"></stop></linearGradient></defs><defs><linearGradient id="grad2_1" x1="0%" y1="100%" x2="100%" y2="0%"><stop offset="30%" stop-color="#f48350" stop-opacity="1"></stop><stop offset="70%" stop-color="#fbae3c" stop-opacity="1"></stop></linearGradient></defs><defs><linearGradient id="grad2_2" x1="0%" y1="100%" x2="100%" y2="0%"><stop offset="30%" stop-color="#f48350" stop-opacity="1"></stop><stop offset="70%" stop-color="#d96162" stop-opacity="1"></stop></linearGradient></defs><defs><linearGradient id="grad2_3" x1="0%" y1="100%" x2="100%" y2="0%"><stop offset="30%" stop-color="#af4b6d" stop-opacity="1"></stop><stop offset="70%" stop-color="#d96162" stop-opacity="1"></stop></linearGradient></defs><defs><linearGradient id="grad2_4" x1="0%" y1="100%" x2="100%" y2="0%"><stop offset="30%" stop-color="#af4b6d" stop-opacity="1"></stop><stop offset="70%" stop-color="#7c3e6b" stop-opacity="1"></stop></linearGradient></defs><defs><linearGradient id="grad2_5" x1="0%" y1="100%" x2="100%" y2="0%"><stop offset="30%" stop-color="#49335c" stop-opacity="1"></stop><stop offset="70%" stop-color="#7c3e6b" stop-opacity="1"></stop></linearGradient></defs><defs><linearGradient id="grad2_6" x1="0%" y1="100%" x2="100%" y2="0%"><stop offset="30%" stop-color="#49335c" stop-opacity="1"></stop><stop offset="70%" stop-color="#1d2540" stop-opacity="1"></stop></linearGradient></defs><defs><linearGradient id="grad2_7" x1="0%" y1="100%" x2="100%" y2="0%"><stop offset="30%" stop-color="#001220" stop-opacity="1"></stop><stop offset="70%" stop-color="#1d2540" stop-opacity="1"></stop></linearGradient></defs><g transform="translate(675, 900)"><path d="M-506.2 0C-469.7 -19.2 -433.2 -38.5 -429.6 -61.8C-426 -85 -455.3 -112.3 -457.7 -134.4C-460 -156.5 -435.4 -173.3 -422.1 -192.8C-408.7 -212.2 -406.5 -234.2 -403.8 -259.5C-401.1 -284.8 -397.8 -313.5 -382.6 -331.5C-367.4 -349.5 -340.3 -356.8 -315 -363.5C-289.6 -370.2 -266 -376.3 -242.2 -376.9C-218.4 -377.4 -194.4 -372.4 -177.4 -388.4C-160.4 -404.4 -150.4 -441.4 -132.1 -450C-113.8 -458.6 -87.2 -438.8 -63.8 -443.4C-40.3 -448.1 -20.2 -477.2 0 -506.2L0 0Z" fill="#0c1c30"></path><path d="M-443 0C-411 -16.8 -379 -33.7 -375.9 -54C-372.7 -74.4 -398.4 -98.3 -400.5 -117.6C-402.5 -136.9 -381 -151.7 -369.3 -168.7C-357.6 -185.7 -355.7 -204.9 -353.3 -227.1C-350.9 -249.2 -348.1 -274.3 -334.8 -290.1C-321.5 -305.8 -297.8 -312.2 -275.6 -318.1C-253.4 -323.9 -232.8 -329.3 -211.9 -329.8C-191.1 -330.3 -170.1 -325.9 -155.2 -339.9C-140.3 -353.9 -131.6 -386.2 -115.6 -393.8C-99.6 -401.3 -76.3 -383.9 -55.8 -388C-35.3 -392.1 -17.7 -417.5 0 -443L0 0Z" fill="#312c4f"></path><path d="M-379.7 0C-352.3 -14.4 -324.9 -28.9 -322.2 -46.3C-319.5 -63.8 -341.5 -84.2 -343.3 -100.8C-345 -117.3 -326.6 -130 -316.6 -144.6C-306.5 -159.1 -304.9 -175.6 -302.9 -194.6C-300.8 -213.6 -298.3 -235.1 -286.9 -248.6C-275.6 -262.1 -255.3 -267.6 -236.2 -272.6C-217.2 -277.7 -199.5 -282.2 -181.7 -282.7C-163.8 -283.1 -145.8 -279.3 -133 -291.3C-120.3 -303.3 -112.8 -331.1 -99.1 -337.5C-85.4 -344 -65.4 -329.1 -47.8 -332.6C-30.3 -336.1 -15.1 -357.9 0 -379.7L0 0Z" fill="#623965"></path><path d="M-316.4 0C-293.6 -12 -270.7 -24.1 -268.5 -38.6C-266.2 -53.1 -284.6 -70.2 -286 -84C-287.5 -97.8 -272.2 -108.3 -263.8 -120.5C-255.4 -132.6 -254.1 -146.4 -252.4 -162.2C-250.7 -178 -248.6 -196 -239.1 -207.2C-229.6 -218.4 -212.7 -223 -196.9 -227.2C-181 -231.4 -166.3 -235.2 -151.4 -235.6C-136.5 -235.9 -121.5 -232.8 -110.9 -242.8C-100.2 -252.8 -94 -275.9 -82.6 -281.3C-71.1 -286.6 -54.5 -274.2 -39.8 -277.2C-25.2 -280.1 -12.6 -298.2 0 -316.4L0 0Z" fill="#96446e"></path><path d="M-253.1 0C-234.9 -9.6 -216.6 -19.2 -214.8 -30.9C-213 -42.5 -227.7 -56.2 -228.8 -67.2C-230 -78.2 -217.7 -86.7 -211 -96.4C-204.3 -106.1 -203.3 -117.1 -201.9 -129.8C-200.5 -142.4 -198.9 -156.8 -191.3 -165.8C-183.7 -174.8 -170.2 -178.4 -157.5 -181.8C-144.8 -185.1 -133 -188.2 -121.1 -188.4C-109.2 -188.7 -97.2 -186.2 -88.7 -194.2C-80.2 -202.2 -75.2 -220.7 -66.1 -225C-56.9 -229.3 -43.6 -219.4 -31.9 -221.7C-20.2 -224 -10.1 -238.6 0 -253.1L0 0Z" fill="#c55469"></path><path d="M-189.8 0C-176.1 -7.2 -162.4 -14.4 -161.1 -23.2C-159.7 -31.9 -170.7 -42.1 -171.6 -50.4C-172.5 -58.7 -163.3 -65 -158.3 -72.3C-153.3 -79.6 -152.4 -87.8 -151.4 -97.3C-150.4 -106.8 -149.2 -117.6 -143.5 -124.3C-137.8 -131.1 -127.6 -133.8 -118.1 -136.3C-108.6 -138.8 -99.8 -141.1 -90.8 -141.3C-81.9 -141.5 -72.9 -139.7 -66.5 -145.7C-60.1 -151.7 -56.4 -165.5 -49.5 -168.8C-42.7 -172 -32.7 -164.5 -23.9 -166.3C-15.1 -168 -7.6 -178.9 0 -189.8L0 0Z" fill="#e9705a"></path><path d="M-126.6 0C-117.4 -4.8 -108.3 -9.6 -107.4 -15.4C-106.5 -21.3 -113.8 -28.1 -114.4 -33.6C-115 -39.1 -108.9 -43.3 -105.5 -48.2C-102.2 -53 -101.6 -58.5 -101 -64.9C-100.3 -71.2 -99.4 -78.4 -95.6 -82.9C-91.9 -87.4 -85.1 -89.2 -78.7 -90.9C-72.4 -92.6 -66.5 -94.1 -60.6 -94.2C-54.6 -94.4 -48.6 -93.1 -44.3 -97.1C-40.1 -101.1 -37.6 -110.4 -33 -112.5C-28.5 -114.7 -21.8 -109.7 -15.9 -110.9C-10.1 -112 -5 -119.3 0 -126.6L0 0Z" fill="#fa9845"></path><path d="M-63.3 0C-58.7 -2.4 -54.1 -4.8 -53.7 -7.7C-53.2 -10.6 -56.9 -14 -57.2 -16.8C-57.5 -19.6 -54.4 -21.7 -52.8 -24.1C-51.1 -26.5 -50.8 -29.3 -50.5 -32.4C-50.1 -35.6 -49.7 -39.2 -47.8 -41.4C-45.9 -43.7 -42.5 -44.6 -39.4 -45.4C-36.2 -46.3 -33.3 -47 -30.3 -47.1C-27.3 -47.2 -24.3 -46.6 -22.2 -48.6C-20 -50.6 -18.8 -55.2 -16.5 -56.3C-14.2 -57.3 -10.9 -54.8 -8 -55.4C-5 -56 -2.5 -59.6 0 -63.3L0 0Z" fill="#fbae3c"></path></g><g transform="translate(0, 0)"><path d="M506.3 0C466.3 20.2 426.3 40.4 404.8 58.2C383.4 76 380.4 91.3 388.6 114.1C396.8 136.9 416.1 167.3 413 188.6C409.9 209.9 384.3 222 368.5 236.8C352.6 251.6 346.6 269 346.9 300.6C347.2 332.2 353.9 377.9 328.1 378.6C302.3 379.3 243.9 334.9 222.7 346.6C201.6 358.3 217.6 426 209.8 459.4C202 492.7 170.4 491.8 142.6 485.7C114.8 479.7 90.9 468.6 67.7 471.2C44.6 473.7 22.3 490 0 506.3L0 0Z" fill="#0c1c30"></path><path d="M443 0C408 17.7 373 35.4 354.2 50.9C335.4 66.5 332.9 79.9 340 99.8C347.2 119.8 364.1 146.4 361.4 165C358.6 183.6 336.3 194.3 322.4 207.2C308.6 220.1 303.3 235.4 303.5 263C303.8 290.6 309.7 330.7 287.1 331.3C264.5 331.9 213.4 293.1 194.9 303.3C176.4 313.5 190.4 372.7 183.6 401.9C176.7 431.2 149.1 430.3 124.8 425C100.5 419.7 79.5 410 59.3 412.3C39 414.5 19.5 428.7 0 443L0 0Z" fill="#312c4f"></path><path d="M379.7 0C349.7 15.2 319.7 30.3 303.6 43.7C287.5 57 285.3 68.4 291.4 85.6C297.6 102.7 312.1 125.5 309.7 141.4C307.4 157.4 288.2 166.5 276.4 177.6C264.5 188.7 259.9 201.7 260.2 225.4C260.4 249.1 265.4 283.5 246.1 284C226.7 284.5 182.9 251.2 167.1 259.9C151.2 268.7 163.2 319.5 157.3 344.5C151.5 369.6 127.8 368.8 107 364.3C86.1 359.8 68.2 351.4 50.8 353.4C33.5 355.3 16.7 367.5 0 379.7L0 0Z" fill="#623965"></path><path d="M316.4 0C291.4 12.6 266.4 25.3 253 36.4C239.6 47.5 237.8 57 242.9 71.3C248 85.6 260.1 104.6 258.1 117.9C256.2 131.2 240.2 138.8 230.3 148C220.4 157.2 216.6 168.1 216.8 187.9C217 207.6 221.2 236.2 205.1 236.6C188.9 237.1 152.4 209.3 139.2 216.6C126 223.9 136 266.2 131.1 287.1C126.2 308 106.5 307.4 89.1 303.6C71.8 299.8 56.8 292.9 42.3 294.5C27.9 296.1 13.9 306.2 0 316.4L0 0Z" fill="#96446e"></path><path d="M253.1 0C233.1 10.1 213.2 20.2 202.4 29.1C191.7 38 190.2 45.6 194.3 57.1C198.4 68.5 208 83.7 206.5 94.3C204.9 104.9 192.1 111 184.2 118.4C176.3 125.8 173.3 134.5 173.4 150.3C173.6 166.1 177 189 164 189.3C151.1 189.7 122 167.5 111.4 173.3C100.8 179.1 108.8 213 104.9 229.7C101 246.4 85.2 245.9 71.3 242.9C57.4 239.9 45.4 234.3 33.9 235.6C22.3 236.9 11.2 245 0 253.1L0 0Z" fill="#c55469"></path><path d="M189.8 0C174.9 7.6 159.9 15.2 151.8 21.8C143.8 28.5 142.7 34.2 145.7 42.8C148.8 51.4 156 62.7 154.9 70.7C153.7 78.7 144.1 83.3 138.2 88.8C132.2 94.3 130 100.9 130.1 112.7C130.2 124.6 132.7 141.7 123 142C113.3 142.2 91.5 125.6 83.5 130C75.6 134.3 81.6 159.7 78.7 172.3C75.7 184.8 63.9 184.4 53.5 182.2C43.1 179.9 34.1 175.7 25.4 176.7C16.7 177.6 8.4 183.7 0 189.8L0 0Z" fill="#e9705a"></path><path d="M126.6 0C116.6 5.1 106.6 10.1 101.2 14.6C95.8 19 95.1 22.8 97.1 28.5C99.2 34.2 104 41.8 103.2 47.1C102.5 52.5 96.1 55.5 92.1 59.2C88.2 62.9 86.6 67.2 86.7 75.1C86.8 83 88.5 94.5 82 94.7C75.6 94.8 61 83.7 55.7 86.6C50.4 89.6 54.4 106.5 52.4 114.8C50.5 123.2 42.6 122.9 35.7 121.4C28.7 119.9 22.7 117.1 16.9 117.8C11.2 118.4 5.6 122.5 0 126.6L0 0Z" fill="#fa9845"></path><path d="M63.3 0C58.3 2.5 53.3 5.1 50.6 7.3C47.9 9.5 47.6 11.4 48.6 14.3C49.6 17.1 52 20.9 51.6 23.6C51.2 26.2 48 27.8 46.1 29.6C44.1 31.4 43.3 33.6 43.4 37.6C43.4 41.5 44.2 47.2 41 47.3C37.8 47.4 30.5 41.9 27.8 43.3C25.2 44.8 27.2 53.2 26.2 57.4C25.2 61.6 21.3 61.5 17.8 60.7C14.4 60 11.4 58.6 8.5 58.9C5.6 59.2 2.8 61.2 0 63.3L0 0Z" fill="#fbae3c"></path></g></svg>